<svg width="1500" height="946" fill="none" xmlns="http://www.w3.org/2000/svg">
    <g clip-path="url(#a)">
        <mask id="l" style="mask-type:luminance" maskUnits="userSpaceOnUse" x="0" y="9" width="1498" height="937">
            <g clip-path="url(#b)">
                <g clip-path="url(#c)">
                    <g clip-path="url(#d)">
                        <g clip-path="url(#e)">
                            <g clip-path="url(#f)">
                                <g clip-path="url(#g)">
                                    <g clip-path="url(#h)">
                                        <g clip-path="url(#i)">
                                            <path d="M344.702 609.781c13.534 0 24.547 1.26 33.039 3.781s14.768 6.794 18.829 12.818c4.033 6.05 6.05 14.45 6.05 25.197 0 5.44-.823 10.509-2.468 15.206-1.672 4.724-4.525 8.611-8.558 11.663-4.06 3.052-9.673 4.976-16.838 5.772v1.194c2.521.266 5.307 1.022 8.359 2.269 3.052 1.274 5.905 3.397 8.558 6.369 2.654 2.999 4.512 7.285 5.573 12.857l10.748 42.195h-45.18l-8.956-40.801c-.796-3.848-2.017-6.369-3.662-7.564-1.672-1.194-4.366-1.791-8.081-1.791-9.951-.133-18.072-.199-24.361-.199-6.316 0-11.663-.066-16.042-.199a437.12 437.12 0 0 1-13.136-.597l.597-29.456h54.534c4.114 0 7.298-.398 9.554-1.195 2.255-.796 3.821-2.229 4.697-4.299.849-2.043 1.274-4.922 1.274-8.637 0-3.848-.425-6.767-1.274-8.758-.876-1.99-2.442-3.383-4.697-4.179-2.256-.797-5.44-1.195-9.554-1.195-13.799 0-25.409.067-34.83.199-9.421.133-15.856.399-19.306.797l-3.184-29.457c6.103-.663 11.849-1.128 17.236-1.393 5.36-.265 11.265-.438 17.713-.518 6.422-.053 14.211-.079 23.366-.079Zm-58.315 1.99h42.393v137.331h-42.393V611.771Zm165.791-.796c7.962 0 16.148.027 24.561.08a746.53 746.53 0 0 1 24.799.637c8.094.318 15.458.942 22.092 1.87l-1.99 30.452h-50.355c-2.521 0-4.511.663-5.971 1.99-1.459 1.327-2.189 3.052-2.189 5.175v58.515c0 2.123.73 3.848 2.189 5.175 1.46 1.326 3.45 1.99 5.971 1.99h50.355l1.99 30.451c-6.634.797-13.998 1.394-22.092 1.792-8.094.398-16.36.637-24.799.716-8.413.053-16.599.08-24.561.08-9.42 0-17.156-2.893-23.206-8.678-6.024-5.758-9.036-13.282-9.036-22.57v-76.427c0-9.288 3.012-16.812 9.036-22.57 6.05-5.785 13.786-8.678 23.206-8.678Zm-28.66 82.199v-28.66h90.957v28.66h-90.957Zm174.748-83.393c11.809 0 21.787 1.088 29.934 3.264 8.174 2.203 14.782 5.918 19.824 11.146 5.042 5.254 8.691 12.459 10.946 21.614 2.256 9.156 3.384 20.699 3.384 34.631 0 13.932-1.128 25.476-3.384 34.632-2.255 9.155-5.904 16.347-10.946 21.574-5.042 5.255-11.65 8.97-19.824 11.146-8.147 2.203-18.125 3.304-29.934 3.304-11.411 0-21.893-.199-31.446-.597-9.554-.398-18.643-.863-27.267-1.393l17.514-30.651c4.644.531 10.509.889 17.594 1.075 7.112.212 14.981.318 23.605.318 4.91 0 8.691-1.061 11.345-3.184s4.511-6.037 5.573-11.743c1.061-5.705 1.592-13.866 1.592-24.481 0-10.615-.531-18.775-1.592-24.48-1.062-5.706-2.919-9.62-5.573-11.743-2.654-2.123-6.435-3.184-11.345-3.184h-21.415c-6.157 0-12.154-.067-17.993-.2l-19.305-29.058c8.757-.531 17.806-.995 27.147-1.393 9.368-.398 19.89-.597 31.566-.597Zm-58.713 1.99h43.189v137.331h-43.189V611.771Zm239.591-2.388c7.166 0 13.269.199 18.311.597 5.042.398 9.66.969 13.853 1.712 4.166.716 8.505 1.738 13.016 3.065l-3.184 31.446a457.59 457.59 0 0 0-12.937-.199c-3.981 0-8.227-.04-12.738-.119-4.511-.053-9.952-.08-16.321-.08-4.511 0-7.987.956-10.429 2.866-2.468 1.937-4.166 5.387-5.095 10.35-.929 4.989-1.393 12.127-1.393 21.415 0 9.288.464 16.414 1.393 21.376.929 4.989 2.627 8.439 5.095 10.35 2.442 1.937 5.918 2.906 10.429 2.906 9.952 0 18.285-.107 24.999-.319 6.687-.186 13.348-.61 19.982-1.274l3.185 31.447a111.94 111.94 0 0 1-21.177 5.095c-7.245.982-16.241 1.473-26.989 1.473-15.126 0-27.267-2.295-36.422-6.886-9.155-4.565-15.75-12.022-19.784-22.371-4.06-10.35-6.09-24.282-6.09-41.797 0-17.514 2.03-31.446 6.09-41.796 4.034-10.349 10.629-17.82 19.784-22.411 9.155-4.564 21.296-6.846 36.422-6.846Zm100.112 2.388h39.209c3.45 0 6.502.995 9.156 2.986 2.653 1.99 4.445 4.71 5.373 8.16l35.627 126.185h-43.986l-20.699-89.365a127.176 127.176 0 0 1-1.393-7.881 191.87 191.87 0 0 1-.995-7.842h-5.374a191.87 191.87 0 0 1-.995 7.842c-.398 2.733-.863 5.36-1.393 7.881l-20.7 89.365h-43.985l35.626-126.185c.929-3.45 2.72-6.17 5.374-8.16 2.654-1.991 5.706-2.986 9.155-2.986Zm-16.917 77.423h73.044v30.252h-73.044v-30.252Zm192.461-77.423h46.37l-31.64 53.738c-1.73 3.052-3.72 5.639-5.97 7.762-2.26 2.123-4.31 3.583-6.17 4.379v.796c1.86.796 4.2 2.481 7.04 5.055 2.87 2.601 5.1 5.427 6.69 8.479l32.04 57.122h-47.96l-36.42-71.85 36.02-65.481Zm-77.422 0h43.192v34.631c0 5.042-.51 10.244-1.52 15.604-.98 5.387-2.53 10.403-4.65 15.047 1.59 4.246 3.01 8.85 4.26 13.813 1.27 4.989 1.91 9.473 1.91 13.454v44.782h-43.192V611.771Zm30.852 52.146h23.09v27.864h-23.09v-27.864Zm132.11-52.942c7.96 0 16.16.027 24.6.08a745.2 745.2 0 0 1 24.76.637c8.1.318 15.46.942 22.1 1.87l-2 30.452h-50.35c-2.52 0-4.51.663-5.97 1.99s-2.19 3.052-2.19 5.175v58.515c0 2.123.73 3.848 2.19 5.175 1.46 1.326 3.45 1.99 5.97 1.99h50.35l2 30.451c-6.64.797-14 1.394-22.1 1.792-8.09.398-16.34.637-24.76.716-8.44.053-16.64.08-24.6.08-9.42 0-17.14-2.893-23.16-8.678-6.05-5.758-9.08-13.282-9.08-22.57v-76.427c0-9.288 3.03-16.812 9.08-22.57 6.02-5.785 13.74-8.678 23.16-8.678Zm-28.66 82.199v-28.66h90.96v28.66h-90.96Z" fill="#fff"/>
                                        </g>
                                    </g>
                                </g>
                            </g>
                            <g clip-path="url(#j)">
                                <g clip-path="url(#k)">
                                    <path d="M749.091 203.717c-130.946 0-270.125 36.159-270.125 103.172v178.585c0 17.855 9.983 34.355 29.649 48.985l4.516 3.403 132.858-21.572v65.565l26.538 2.815c24.786 2.674 50.524 3.976 76.564 3.976 130.946 0 270.129-36.154 270.129-103.183V306.889c0-67.013-139.183-103.172-270.129-103.172Zm167.877 250.66c-.237.06-.47.103-.696.168-12.567 3.868-28.245.702-43.982 3.825-6.143 1.221-11.853 7.255-17.748 13.587-14.132 2.129-29.335 3.858-45.505 5.122-7.682-5.554-15.537-11.021-22.998-10.611-6.375.351-12.793 6.327-19.352 12.701-5.889.125-11.842.217-17.947.217-15.079 0-57.677-1.681-75.738-2.707V406.16c24.652 2.599 50.238 3.955 76.084 3.955 47.266 0 95.575-4.771 138.071-13.939 43.777-9.465 81.303-23.668 105.036-42.345v56.656a16.13 16.13 0 0 1-2.88 1.74c0 1.615-13.873 3.582-21.999 9.444-9.384 6.78-16.434 10.859-31.134 16.774-5.986 2.421-17.585 14.047-19.212 15.932Zm-257.429-66.429-13.55 15.354v15.954a20.065 20.065 0 0 0-3.16 1.723l-112.783 18.315v-82.761l183.329-29.768-53.836 61.183Zm-45.305 54.09c-.325.065-.611.168-.946.222-.567.097-1.07.124-1.615.194l2.561-.416Zm-108.25-135.149c0-31.459 92.496-75.36 243.107-75.36 150.643 0 243.107 43.896 243.113 75.36 0 31.507-92.464 75.381-243.108 75.381-15.753 0-31.404-.519-46.758-1.491l82.485-93.755-264.69 42.944c-7.196-6.126-14.149-14.295-14.149-23.079Zm24.057 200.022v-39.438c17.315 2.139 19.298-5.981 39.406-9.249 21.739-3.528 20.405-11.756 42.145-15.284 18.152-2.95 22.399 4.571 34.397.746v44.43l-115.948 18.795Zm219.05 53.917c-15.754 0-60.703-1.89-76.084-2.89v-64.214c7.753 2.679 23.123 9.66 29.352 9.897 15.781.594 32.059 5.435 40.308 5.435 14.144 0 28.18-11.723 41.443-12.399 2.782-.14 5.484-.977 8.125-2.22 96.781-5.23 168.64-27.553 199.969-53.474v44.506c-.006 31.453-92.47 75.359-243.113 75.359Z" fill="#000"/>
                                </g>
                            </g>
                        </g>
                    </g>
                </g>
                <path d="M392.26 182.981a462.743 462.743 0 0 1 713.66 0H1098a454.822 454.822 0 0 0-697.819 0h-7.921Zm0 589.245a462.75 462.75 0 0 0 356.831 168.119 462.724 462.724 0 0 0 356.829-168.119H1098a454.812 454.812 0 0 1-541.475 120.283 454.815 454.815 0 0 1-156.344-120.283h-7.921Z" fill="#000"/>
            </g>
        </mask>
        <g mask="url(#l)">
            <path d="M1497.87 9.618H.314V945.59H1497.87V9.619Z" fill="url(#m)"/>
        </g>
        <mask id="t" style="mask-type:luminance" maskUnits="userSpaceOnUse" x="0" y="9" width="1498" height="937">
            <g clip-path="url(#n)">
                <g clip-path="url(#o)">
                    <g clip-path="url(#p)">
                        <g clip-path="url(#q)">
                            <g clip-path="url(#r)">
                                <g clip-path="url(#s)">
                                    <path d="M749.091 203.717c-130.946 0-270.125 36.159-270.125 103.172v178.585c0 17.855 9.983 34.355 29.649 48.985l4.516 3.403 132.858-21.572v65.565l26.538 2.815c24.786 2.674 50.524 3.976 76.564 3.976 130.946 0 270.129-36.154 270.129-103.183V306.889c0-67.013-139.183-103.172-270.129-103.172Zm167.877 250.66c-.237.06-.47.103-.696.168-12.567 3.868-28.245.702-43.982 3.825-6.143 1.221-11.853 7.255-17.748 13.587-14.132 2.129-29.335 3.858-45.505 5.122-7.682-5.554-15.537-11.021-22.998-10.611-6.375.351-12.793 6.327-19.352 12.701-5.889.125-11.842.217-17.947.217-15.079 0-57.677-1.681-75.738-2.707V406.16c24.652 2.599 50.238 3.955 76.084 3.955 47.266 0 95.575-4.771 138.071-13.939 43.777-9.465 81.303-23.668 105.036-42.345v56.656a16.13 16.13 0 0 1-2.88 1.74c0 1.615-13.873 3.582-21.999 9.444-9.384 6.78-16.434 10.859-31.134 16.774-5.986 2.421-17.585 14.047-19.212 15.932Zm-257.429-66.429-13.55 15.354v15.954a20.065 20.065 0 0 0-3.16 1.723l-112.783 18.315v-82.761l183.329-29.768-53.836 61.183Zm-45.305 54.09c-.325.065-.611.168-.946.222-.567.097-1.07.124-1.615.194l2.561-.416Zm-108.25-135.149c0-31.459 92.496-75.36 243.107-75.36 150.643 0 243.107 43.896 243.113 75.36 0 31.507-92.464 75.381-243.108 75.381-15.753 0-31.404-.519-46.758-1.491l82.485-93.755-264.69 42.944c-7.196-6.126-14.149-14.295-14.149-23.079Zm24.057 200.022v-39.438c17.315 2.139 19.298-5.981 39.406-9.249 21.739-3.528 20.405-11.756 42.145-15.284 18.152-2.95 22.399 4.571 34.397.746v44.43l-115.948 18.795Zm219.05 53.917c-15.754 0-60.703-1.89-76.084-2.89v-64.214c7.753 2.679 23.123 9.66 29.352 9.897 15.781.594 32.059 5.435 40.308 5.435 14.144 0 28.18-11.723 41.443-12.399 2.782-.14 5.484-.977 8.125-2.22 96.781-5.23 168.64-27.553 199.969-53.474v44.506c-.006 31.453-92.47 75.359-243.113 75.359Z" fill="#fff"/>
                                </g>
                            </g>
                        </g>
                    </g>
                </g>
                <path d="M392.26 182.981a462.743 462.743 0 0 1 713.66 0H1098a454.822 454.822 0 0 0-697.819 0h-7.921Zm0 589.245a462.75 462.75 0 0 0 356.831 168.119 462.724 462.724 0 0 0 356.829-168.119H1098a454.812 454.812 0 0 1-541.475 120.283 454.815 454.815 0 0 1-156.344-120.283h-7.921Z" fill="#000"/>
            </g>
        </mask>
        <g mask="url(#t)">
            <path d="M1497.87 9.618H.314V945.59H1497.87V9.619Z" fill="url(#u)"/>
        </g>
    </g>
    <g clip-path="url(#v)">
        <path d="M393.169 174.877a462.744 462.744 0 0 1 713.661 0h-7.92a454.822 454.822 0 0 0-697.82 0h-7.921Zm0 589.245A462.738 462.738 0 0 0 750 932.241a462.737 462.737 0 0 0 356.83-168.119h-7.92a454.862 454.862 0 0 1-156.344 120.283 454.812 454.812 0 0 1-385.132 0A454.815 454.815 0 0 1 401.09 764.122h-7.921Z" fill="#fff"/>
        <mask id="G" style="mask-type:luminance" maskUnits="userSpaceOnUse" x="1" y="1" width="1498" height="937">
            <g clip-path="url(#w)">
                <g clip-path="url(#x)">
                    <g clip-path="url(#y)">
                        <g clip-path="url(#z)">
                            <g clip-path="url(#A)">
                                <g clip-path="url(#B)">
                                    <g clip-path="url(#C)">
                                        <g clip-path="url(#D)">
                                            <path d="M345.611 601.677c13.535 0 24.547 1.261 33.039 3.782s14.768 6.793 18.829 12.817c4.033 6.051 6.05 14.45 6.05 25.197 0 5.44-.823 10.509-2.468 15.206-1.672 4.724-4.524 8.612-8.558 11.663-4.06 3.052-9.673 4.976-16.838 5.772v1.194c2.521.266 5.307 1.022 8.359 2.269 3.052 1.274 5.905 3.397 8.558 6.369 2.654 2.999 4.512 7.285 5.573 12.858l10.748 42.194h-45.18l-8.956-40.801c-.796-3.848-2.017-6.369-3.662-7.563-1.672-1.195-4.366-1.792-8.081-1.792-9.951-.132-18.072-.199-24.361-.199-6.316 0-11.663-.066-16.042-.199a430.596 430.596 0 0 1-13.136-.597l.597-29.456h54.534c4.114 0 7.298-.398 9.554-1.194 2.255-.796 3.821-2.229 4.697-4.299.849-2.044 1.274-4.923 1.274-8.638 0-3.848-.425-6.767-1.274-8.758-.876-1.99-2.442-3.383-4.697-4.179-2.256-.796-5.44-1.194-9.554-1.194-13.799 0-25.409.066-34.83.199-9.421.132-15.856.398-19.306.796l-3.184-29.457c6.103-.663 11.849-1.127 17.236-1.393 5.36-.265 11.265-.438 17.713-.517 6.422-.053 14.211-.08 23.366-.08Zm-58.315 1.99h42.393v137.331h-42.393V603.667Zm165.792-.796c7.961 0 16.147.027 24.56.08 8.439.08 16.705.292 24.799.637 8.094.318 15.458.942 22.092 1.871l-1.99 30.451h-50.355c-2.521 0-4.511.664-5.971 1.991-1.459 1.326-2.189 3.051-2.189 5.174v58.515c0 2.123.73 3.848 2.189 5.175 1.46 1.327 3.45 1.99 5.971 1.99h50.355l1.99 30.452c-6.634.796-13.998 1.393-22.092 1.791-8.094.398-16.36.637-24.799.716-8.413.053-16.599.08-24.56.08-9.421 0-17.157-2.893-23.207-8.678-6.024-5.758-9.036-13.282-9.036-22.57v-76.427c0-9.288 3.012-16.811 9.036-22.57 6.05-5.785 13.786-8.678 23.207-8.678Zm-28.661 82.2V656.41h90.957v28.661h-90.957Zm174.748-83.394c11.809 0 21.787 1.088 29.934 3.264 8.174 2.203 14.782 5.918 19.824 11.146 5.042 5.254 8.691 12.459 10.946 21.614 2.256 9.156 3.384 20.7 3.384 34.632 0 13.932-1.128 25.475-3.384 34.631-2.255 9.155-5.904 16.347-10.946 21.575-5.042 5.254-11.65 8.969-19.824 11.145-8.147 2.203-18.125 3.304-29.934 3.304-11.411 0-21.893-.199-31.446-.597a1377.46 1377.46 0 0 1-27.267-1.393l17.514-30.651c4.644.531 10.509.889 17.594 1.075 7.112.212 14.981.319 23.605.319 4.91 0 8.691-1.062 11.345-3.185s4.511-6.037 5.573-11.743c1.061-5.705 1.592-13.865 1.592-24.48s-.531-18.775-1.592-24.481c-1.062-5.706-2.919-9.62-5.573-11.743-2.654-2.123-6.435-3.184-11.345-3.184H577.76c-6.157 0-12.154-.067-17.993-.199l-19.305-29.059c8.757-.53 17.806-.995 27.147-1.393 9.368-.398 19.89-.597 31.566-.597Zm-58.713 1.99h43.189v137.331h-43.189V603.667Zm239.592-2.388c7.165 0 13.268.199 18.31.597 5.042.398 9.66.969 13.853 1.712 4.166.716 8.505 1.738 13.016 3.065l-3.184 31.447a453.863 453.863 0 0 0-12.937-.199c-3.981 0-8.227-.04-12.738-.12-4.511-.053-9.952-.08-16.32-.08-4.512 0-7.988.956-10.43 2.867-2.468 1.937-4.166 5.387-5.095 10.349-.929 4.989-1.393 12.128-1.393 21.416s.464 16.413 1.393 21.375c.929 4.989 2.627 8.439 5.095 10.35 2.442 1.937 5.918 2.906 10.43 2.906 9.951 0 18.284-.106 24.998-.319a278.26 278.26 0 0 0 19.982-1.273l3.185 31.446a111.863 111.863 0 0 1-21.177 5.095c-7.245.982-16.241 1.473-26.988 1.473-15.127 0-27.268-2.295-36.423-6.886-9.155-4.565-15.75-12.022-19.783-22.371-4.061-10.35-6.091-24.282-6.091-41.796 0-17.515 2.03-31.447 6.091-41.797 4.033-10.349 10.628-17.819 19.783-22.41 9.155-4.565 21.296-6.847 36.423-6.847Zm100.111 2.388h39.209c3.45 0 6.502.996 9.156 2.986 2.653 1.99 4.445 4.71 5.373 8.16l35.627 126.185h-43.986l-20.699-89.364a127.21 127.21 0 0 1-1.393-7.882 191.87 191.87 0 0 1-.995-7.842h-5.374a191.87 191.87 0 0 1-.995 7.842 127.96 127.96 0 0 1-1.393 7.882l-20.699 89.364H830.01l35.626-126.185c.929-3.45 2.72-6.17 5.374-8.16 2.654-1.99 5.706-2.986 9.155-2.986Zm-16.917 77.423h73.044v30.252h-73.044V681.09Zm192.462-77.423h46.37l-31.64 53.738c-1.73 3.052-3.72 5.64-5.97 7.763-2.26 2.123-4.32 3.582-6.17 4.378v.796c1.85.796 4.2 2.482 7.04 5.056 2.87 2.6 5.1 5.427 6.69 8.478l32.04 57.122h-47.96l-36.42-71.85 36.02-65.481Zm-77.423 0h43.193v34.632c0 5.042-.51 10.243-1.52 15.604-.98 5.387-2.53 10.402-4.65 15.046 1.59 4.246 3.01 8.85 4.26 13.813 1.27 4.989 1.91 9.474 1.91 13.454v44.782h-43.193V603.667Zm30.853 52.146h23.08v27.864h-23.08v-27.864Zm132.11-52.942c7.96 0 16.16.027 24.6.08 8.42.08 16.67.292 24.76.637 8.1.318 15.46.942 22.09 1.871l-1.99 30.451h-50.35c-2.52 0-4.51.664-5.97 1.991-1.46 1.326-2.19 3.051-2.19 5.174v58.515c0 2.123.73 3.848 2.19 5.175s3.45 1.99 5.97 1.99h50.35l1.99 30.452c-6.63.796-13.99 1.393-22.09 1.791-8.09.398-16.34.637-24.76.716-8.44.053-16.64.08-24.6.08-9.42 0-17.14-2.893-23.16-8.678-6.05-5.758-9.08-13.282-9.08-22.57v-76.427c0-9.288 3.03-16.811 9.08-22.57 6.02-5.785 13.74-8.678 23.16-8.678Zm-28.66 82.2V656.41h90.96v28.661h-90.96Z" fill="#fff"/>
                                        </g>
                                    </g>
                                </g>
                            </g>
                            <g clip-path="url(#E)">
                                <g clip-path="url(#F)">
                                    <path d="M750 195.614c-130.946 0-270.125 36.159-270.125 103.171V477.37c0 17.856 9.983 34.355 29.649 48.985l4.516 3.404 132.859-21.573v65.565l26.537 2.815c24.786 2.674 50.524 3.976 76.564 3.976 130.946 0 270.13-36.153 270.13-103.182V298.785c0-67.012-139.184-103.171-270.13-103.171Zm167.877 250.66c-.237.059-.47.102-.697.167-12.566 3.868-28.244.702-43.981 3.825-6.143 1.221-11.853 7.256-17.748 13.587-14.133 2.129-29.335 3.858-45.505 5.122-7.682-5.554-15.537-11.021-22.998-10.611-6.375.352-12.793 6.327-19.352 12.702-5.889.124-11.842.216-17.947.216-15.079 0-57.677-1.68-75.738-2.707v-70.519c24.652 2.599 50.238 3.955 76.084 3.955 47.266 0 95.575-4.771 138.071-13.939 43.777-9.465 81.303-23.668 105.036-42.344v56.656a16.184 16.184 0 0 1-2.88 1.739c0 1.616-13.873 3.582-21.999 9.444-9.384 6.78-16.434 10.859-31.134 16.775-5.986 2.42-17.585 14.046-19.212 15.932Zm-257.429-66.43-13.549 15.354v15.954a20.156 20.156 0 0 0-3.161 1.723L530.955 431.19v-82.761l183.329-29.768-53.836 61.183Zm-45.305 54.09c-.325.065-.611.168-.946.222-.567.097-1.07.124-1.615.194l2.561-.416Zm-108.25-135.149c0-31.459 92.496-75.359 243.107-75.359 150.643 0 243.107 43.895 243.113 75.359 0 31.508-92.464 75.381-243.108 75.381-15.753 0-31.404-.518-46.758-1.491l82.485-93.755-264.69 42.945c-7.196-6.127-14.149-14.295-14.149-23.08Zm24.057 200.023v-39.439c17.315 2.14 19.298-5.98 39.406-9.249 21.739-3.528 20.405-11.756 42.145-15.283 18.152-2.95 22.399 4.57 34.398.745v44.43L530.95 498.808ZM750 552.725c-15.754 0-60.703-1.891-76.084-2.891V485.62c7.753 2.68 23.123 9.66 29.352 9.897 15.781.595 32.059 5.435 40.308 5.435 14.144 0 28.18-11.723 41.443-12.398 2.782-.141 5.484-.978 8.125-2.221 96.781-5.229 168.64-27.553 199.969-53.474v44.506c-.006 31.453-92.47 75.36-243.113 75.36Z" fill="#000"/>
                                </g>
                            </g>
                        </g>
                    </g>
                </g>
                <path d="M393.169 174.877a462.744 462.744 0 0 1 713.661 0h-7.92a454.822 454.822 0 0 0-697.82 0h-7.921Zm0 589.245A462.738 462.738 0 0 0 750 932.241a462.737 462.737 0 0 0 356.83-168.119h-7.92a454.862 454.862 0 0 1-156.344 120.283 454.812 454.812 0 0 1-385.132 0A454.815 454.815 0 0 1 401.09 764.122h-7.921Z" fill="#000"/>
            </g>
        </mask>
        <g mask="url(#G)">
            <path d="M1498.78 1.514H1.223v935.971H1498.78V1.515Z" fill="#fff"/>
        </g>
        <mask id="N" style="mask-type:luminance" maskUnits="userSpaceOnUse" x="1" y="1" width="1498" height="937">
            <g clip-path="url(#H)">
                <g clip-path="url(#I)">
                    <g clip-path="url(#J)">
                        <g clip-path="url(#K)">
                            <g clip-path="url(#L)">
                                <g clip-path="url(#M)">
                                    <path d="M750 195.614c-130.946 0-270.125 36.159-270.125 103.171V477.37c0 17.856 9.983 34.355 29.649 48.985l4.516 3.404 132.859-21.573v65.565l26.537 2.815c24.786 2.674 50.524 3.976 76.564 3.976 130.946 0 270.13-36.153 270.13-103.182V298.785c0-67.012-139.184-103.171-270.13-103.171Zm167.877 250.66c-.237.059-.47.102-.697.167-12.566 3.868-28.244.702-43.981 3.825-6.143 1.221-11.853 7.256-17.748 13.587-14.133 2.129-29.335 3.858-45.505 5.122-7.682-5.554-15.537-11.021-22.998-10.611-6.375.352-12.793 6.327-19.352 12.702-5.889.124-11.842.216-17.947.216-15.079 0-57.677-1.68-75.738-2.707v-70.519c24.652 2.599 50.238 3.955 76.084 3.955 47.266 0 95.575-4.771 138.071-13.939 43.777-9.465 81.303-23.668 105.036-42.344v56.656a16.184 16.184 0 0 1-2.88 1.739c0 1.616-13.873 3.582-21.999 9.444-9.384 6.78-16.434 10.859-31.134 16.775-5.986 2.42-17.585 14.046-19.212 15.932Zm-257.429-66.43-13.549 15.354v15.954a20.156 20.156 0 0 0-3.161 1.723L530.955 431.19v-82.761l183.329-29.768-53.836 61.183Zm-45.305 54.09c-.325.065-.611.168-.946.222-.567.097-1.07.124-1.615.194l2.561-.416Zm-108.25-135.149c0-31.459 92.496-75.359 243.107-75.359 150.643 0 243.107 43.895 243.113 75.359 0 31.508-92.464 75.381-243.108 75.381-15.753 0-31.404-.518-46.758-1.491l82.485-93.755-264.69 42.945c-7.196-6.127-14.149-14.295-14.149-23.08Zm24.057 200.023v-39.439c17.315 2.14 19.298-5.98 39.406-9.249 21.739-3.528 20.405-11.756 42.145-15.283 18.152-2.95 22.399 4.57 34.398.745v44.43L530.95 498.808ZM750 552.725c-15.754 0-60.703-1.891-76.084-2.891V485.62c7.753 2.68 23.123 9.66 29.352 9.897 15.781.595 32.059 5.435 40.308 5.435 14.144 0 28.18-11.723 41.443-12.398 2.782-.141 5.484-.978 8.125-2.221 96.781-5.229 168.64-27.553 199.969-53.474v44.506c-.006 31.453-92.47 75.36-243.113 75.36Z" fill="#fff"/>
                                </g>
                            </g>
                        </g>
                    </g>
                </g>
                <path d="M393.169 174.877a462.744 462.744 0 0 1 713.661 0h-7.92a454.822 454.822 0 0 0-697.82 0h-7.921Zm0 589.245A462.738 462.738 0 0 0 750 932.241a462.737 462.737 0 0 0 356.83-168.119h-7.92a454.862 454.862 0 0 1-156.344 120.283 454.812 454.812 0 0 1-385.132 0A454.815 454.815 0 0 1 401.09 764.122h-7.921Z" fill="#000"/>
            </g>
        </mask>
        <g mask="url(#N)">
            <path d="M1498.78 1.514H1.223v935.971H1498.78V1.515Z" fill="#fff"/>
        </g>
    </g>
    <defs>
        <clipPath id="a">
            <path fill="#fff" transform="translate(.314 9.618)" d="M0 0h1497.55v935.971H0z"/>
        </clipPath>
        <clipPath id="b">
            <path fill="#fff" transform="translate(.314 9.618)" d="M0 0h1497.55v935.971H0z"/>
        </clipPath>
        <clipPath id="c">
            <path fill="#fff" transform="translate(286.347 203.717)" d="M0 0h925.488v547.773H0z"/>
        </clipPath>
        <clipPath id="d">
            <path fill="#fff" transform="translate(286.347 203.717)" d="M0 0h925.488v547.773H0z"/>
        </clipPath>
        <clipPath id="e">
            <path fill="#fff" transform="translate(286.347 203.717)" d="M0 0h925.488v547.773H0z"/>
        </clipPath>
        <clipPath id="f">
            <path fill="#fff" transform="translate(286.347 609.383)" d="M0 0h925.488v142.107H0z"/>
        </clipPath>
        <clipPath id="g">
            <path fill="#fff" transform="translate(286.347 609.383)" d="M0 0h925.488v142.107H0z"/>
        </clipPath>
        <clipPath id="h">
            <path fill="#fff" transform="translate(286.347 609.383)" d="M0 0h925.488v142.107H0z"/>
        </clipPath>
        <clipPath id="i">
            <path fill="#fff" transform="translate(286.347 609.383)" d="M0 0h925.488v142.107H0z"/>
        </clipPath>
        <clipPath id="j">
            <path fill="#fff" transform="translate(478.966 203.717)" d="M0 0h540.251v384.929H0z"/>
        </clipPath>
        <clipPath id="k">
            <path fill="#fff" transform="translate(478.966 203.717)" d="M0 0h540.251v384.929H0z"/>
        </clipPath>
        <clipPath id="n">
            <path fill="#fff" transform="translate(.314 9.618)" d="M0 0h1497.55v935.971H0z"/>
        </clipPath>
        <clipPath id="o">
            <path fill="#fff" transform="translate(286.347 203.717)" d="M0 0h925.488v547.773H0z"/>
        </clipPath>
        <clipPath id="p">
            <path fill="#fff" transform="translate(286.347 203.717)" d="M0 0h925.488v547.773H0z"/>
        </clipPath>
        <clipPath id="q">
            <path fill="#fff" transform="translate(286.347 203.717)" d="M0 0h925.488v547.773H0z"/>
        </clipPath>
        <clipPath id="r">
            <path fill="#fff" transform="translate(478.966 203.717)" d="M0 0h540.251v384.929H0z"/>
        </clipPath>
        <clipPath id="s">
            <path fill="#fff" transform="translate(478.966 203.717)" d="M0 0h540.251v384.929H0z"/>
        </clipPath>
        <clipPath id="v">
            <path fill="#fff" transform="translate(1.223 1.514)" d="M0 0h1497.55v935.971H0z"/>
        </clipPath>
        <clipPath id="w">
            <path fill="#fff" transform="translate(1.223 1.514)" d="M0 0h1497.55v935.971H0z"/>
        </clipPath>
        <clipPath id="x">
            <path fill="#fff" transform="translate(287.256 195.614)" d="M0 0h925.488v547.773H0z"/>
        </clipPath>
        <clipPath id="y">
            <path fill="#fff" transform="translate(287.256 195.614)" d="M0 0h925.488v547.773H0z"/>
        </clipPath>
        <clipPath id="z">
            <path fill="#fff" transform="translate(287.256 195.614)" d="M0 0h925.488v547.773H0z"/>
        </clipPath>
        <clipPath id="A">
            <path fill="#fff" transform="translate(287.256 601.279)" d="M0 0h925.488v142.107H0z"/>
        </clipPath>
        <clipPath id="B">
            <path fill="#fff" transform="translate(287.256 601.279)" d="M0 0h925.488v142.107H0z"/>
        </clipPath>
        <clipPath id="C">
            <path fill="#fff" transform="translate(287.256 601.279)" d="M0 0h925.488v142.107H0z"/>
        </clipPath>
        <clipPath id="D">
            <path fill="#fff" transform="translate(287.256 601.279)" d="M0 0h925.488v142.107H0z"/>
        </clipPath>
        <clipPath id="E">
            <path fill="#fff" transform="translate(479.875 195.614)" d="M0 0h540.251v384.929H0z"/>
        </clipPath>
        <clipPath id="F">
            <path fill="#fff" transform="translate(479.875 195.614)" d="M0 0h540.251v384.929H0z"/>
        </clipPath>
        <clipPath id="H">
            <path fill="#fff" transform="translate(1.223 1.514)" d="M0 0h1497.55v935.971H0z"/>
        </clipPath>
        <clipPath id="I">
            <path fill="#fff" transform="translate(287.256 195.614)" d="M0 0h925.488v547.773H0z"/>
        </clipPath>
        <clipPath id="J">
            <path fill="#fff" transform="translate(287.256 195.614)" d="M0 0h925.488v547.773H0z"/>
        </clipPath>
        <clipPath id="K">
            <path fill="#fff" transform="translate(287.256 195.614)" d="M0 0h925.488v547.773H0z"/>
        </clipPath>
        <clipPath id="L">
            <path fill="#fff" transform="translate(479.875 195.614)" d="M0 0h540.251v384.929H0z"/>
        </clipPath>
        <clipPath id="M">
            <path fill="#fff" transform="translate(479.875 195.614)" d="M0 0h540.251v384.929H0z"/>
        </clipPath>
        <linearGradient id="m" x1=".314" y1="477.604" x2="1497.87" y2="477.604" gradientUnits="userSpaceOnUse">
            <stop stop-color="#F00B51"/>
            <stop offset="1" stop-color="#730062"/>
        </linearGradient>
        <linearGradient id="u" x1=".314" y1="477.604" x2="1497.87" y2="477.604" gradientUnits="userSpaceOnUse">
            <stop stop-color="#F00B51"/>
            <stop offset="1" stop-color="#730062"/>
        </linearGradient>
    </defs>
</svg>
