<svg width="1500" height="946" viewBox="0 0 1500 946" fill="none" xmlns="http://www.w3.org/2000/svg">
<g clip-path="url(#clip0_2004_1436)">
<mask id="mask0_2004_1436" style="mask-type:luminance" maskUnits="userSpaceOnUse" x="0" y="9" width="1498" height="937">
<g clip-path="url(#clip1_2004_1436)">
<g clip-path="url(#clip2_2004_1436)">
<g clip-path="url(#clip3_2004_1436)">
<g clip-path="url(#clip4_2004_1436)">
<g clip-path="url(#clip5_2004_1436)">
<g clip-path="url(#clip6_2004_1436)">
<g clip-path="url(#clip7_2004_1436)">
<g clip-path="url(#clip8_2004_1436)">
<path d="M344.702 609.781C358.236 609.781 369.249 611.041 377.741 613.562C386.233 616.083 392.509 620.356 396.57 626.38C400.603 632.43 402.62 640.83 402.62 651.577C402.62 657.017 401.797 662.086 400.152 666.783C398.48 671.507 395.627 675.394 391.594 678.446C387.534 681.498 381.921 683.422 374.756 684.218V685.412C377.277 685.678 380.063 686.434 383.115 687.681C386.167 688.955 389.02 691.078 391.673 694.05C394.327 697.049 396.185 701.335 397.246 706.907L407.994 749.102H362.814L353.858 708.301C353.062 704.453 351.841 701.932 350.196 700.737C348.524 699.543 345.83 698.946 342.115 698.946C332.164 698.813 324.043 698.747 317.754 698.747C311.438 698.747 306.091 698.681 301.712 698.548C297.333 698.415 292.955 698.216 288.576 697.951L289.173 668.495H343.707C347.821 668.495 351.005 668.097 353.261 667.3C355.516 666.504 357.082 665.071 357.958 663.001C358.807 660.958 359.232 658.079 359.232 654.364C359.232 650.516 358.807 647.597 357.958 645.606C357.082 643.616 355.516 642.223 353.261 641.427C351.005 640.63 347.821 640.232 343.707 640.232C329.908 640.232 318.298 640.299 308.877 640.431C299.456 640.564 293.021 640.83 289.571 641.228L286.387 611.771C292.49 611.108 298.236 610.643 303.623 610.378C308.983 610.113 314.888 609.94 321.336 609.86C327.758 609.807 335.547 609.781 344.702 609.781ZM286.387 611.771H328.78V749.102H286.387V611.771ZM452.178 610.975C460.14 610.975 468.326 611.002 476.739 611.055C485.178 611.134 493.444 611.347 501.538 611.692C509.632 612.01 516.996 612.634 523.63 613.562L521.64 644.014H471.285C468.764 644.014 466.774 644.677 465.314 646.004C463.855 647.331 463.125 649.056 463.125 651.179V709.694C463.125 711.817 463.855 713.542 465.314 714.869C466.774 716.195 468.764 716.859 471.285 716.859H521.64L523.63 747.31C516.996 748.107 509.632 748.704 501.538 749.102C493.444 749.5 485.178 749.739 476.739 749.818C468.326 749.871 460.14 749.898 452.178 749.898C442.758 749.898 435.022 747.005 428.972 741.22C422.948 735.462 419.936 727.938 419.936 718.65V642.223C419.936 632.935 422.948 625.411 428.972 619.653C435.022 613.868 442.758 610.975 452.178 610.975ZM423.518 693.174V664.514H514.475V693.174H423.518ZM598.266 609.781C610.075 609.781 620.053 610.869 628.2 613.045C636.374 615.248 642.982 618.963 648.024 624.191C653.066 629.445 656.715 636.65 658.97 645.805C661.226 654.961 662.354 666.504 662.354 680.436C662.354 694.368 661.226 705.912 658.97 715.068C656.715 724.223 653.066 731.415 648.024 736.642C642.982 741.897 636.374 745.612 628.2 747.788C620.053 749.991 610.075 751.092 598.266 751.092C586.855 751.092 576.373 750.893 566.82 750.495C557.266 750.097 548.177 749.632 539.553 749.102L557.067 718.451C561.711 718.982 567.576 719.34 574.661 719.526C581.773 719.738 589.642 719.844 598.266 719.844C603.176 719.844 606.957 718.783 609.611 716.66C612.265 714.537 614.122 710.623 615.184 704.917C616.245 699.212 616.776 691.051 616.776 680.436C616.776 669.821 616.245 661.661 615.184 655.956C614.122 650.25 612.265 646.336 609.611 644.213C606.957 642.09 603.176 641.029 598.266 641.029C590.172 641.029 583.034 641.029 576.851 641.029C570.694 641.029 564.697 640.962 558.858 640.829L539.553 611.771C548.31 611.24 557.359 610.776 566.7 610.378C576.068 609.98 586.59 609.781 598.266 609.781ZM539.553 611.771H582.742V749.102H539.553V611.771ZM779.144 609.383C786.31 609.383 792.413 609.582 797.455 609.98C802.497 610.378 807.115 610.949 811.308 611.692C815.474 612.408 819.813 613.43 824.324 614.757L821.14 646.203C816.496 646.071 812.183 646.004 808.203 646.004C804.222 646.004 799.976 645.964 795.465 645.885C790.954 645.832 785.513 645.805 779.144 645.805C774.633 645.805 771.157 646.761 768.715 648.671C766.247 650.608 764.549 654.058 763.62 659.021C762.691 664.01 762.227 671.148 762.227 680.436C762.227 689.724 762.691 696.85 763.62 701.812C764.549 706.801 766.247 710.251 768.715 712.162C771.157 714.099 774.633 715.068 779.144 715.068C789.096 715.068 797.429 714.961 804.143 714.749C810.83 714.563 817.491 714.139 824.125 713.475L827.31 744.922C820.41 747.31 813.351 749.009 806.133 750.017C798.888 750.999 789.892 751.49 779.144 751.49C764.018 751.49 751.877 749.195 742.722 744.604C733.567 740.039 726.972 732.582 722.938 722.233C718.878 711.883 716.848 697.951 716.848 680.436C716.848 662.922 718.878 648.99 722.938 638.64C726.972 628.291 733.567 620.82 742.722 616.229C751.877 611.665 764.018 609.383 779.144 609.383ZM879.256 611.771H918.465C921.915 611.771 924.967 612.766 927.621 614.757C930.274 616.747 932.066 619.467 932.994 622.917L968.621 749.102H924.635L903.936 659.737C903.405 657.216 902.941 654.589 902.543 651.856C902.145 649.149 901.813 646.535 901.548 644.014H896.174C895.909 646.535 895.577 649.149 895.179 651.856C894.781 654.589 894.316 657.216 893.786 659.737L873.086 749.102H829.101L864.727 622.917C865.656 619.467 867.447 616.747 870.101 614.757C872.755 612.766 875.807 611.771 879.256 611.771ZM862.339 689.194H935.383V719.446H862.339V689.194ZM1054.8 611.771H1101.17L1069.53 665.509C1067.8 668.561 1065.81 671.148 1063.56 673.271C1061.3 675.394 1059.25 676.854 1057.39 677.65V678.446C1059.25 679.242 1061.59 680.927 1064.43 683.501C1067.3 686.102 1069.53 688.928 1071.12 691.98L1103.16 749.102H1055.2L1018.78 677.252L1054.8 611.771ZM977.378 611.771H1020.57V646.402C1020.57 651.444 1020.06 656.646 1019.05 662.006C1018.07 667.393 1016.52 672.409 1014.4 677.053C1015.99 681.299 1017.41 685.903 1018.66 690.866C1019.93 695.855 1020.57 700.339 1020.57 704.32V749.102H977.378V611.771ZM1008.23 663.917H1031.32V691.781H1008.23V663.917ZM1140.34 610.975C1148.3 610.975 1156.5 611.002 1164.94 611.055C1173.36 611.134 1181.61 611.347 1189.7 611.692C1197.8 612.01 1205.16 612.634 1211.8 613.562L1209.8 644.014H1159.45C1156.93 644.014 1154.94 644.677 1153.48 646.004C1152.02 647.331 1151.29 649.056 1151.29 651.179V709.694C1151.29 711.817 1152.02 713.542 1153.48 714.869C1154.94 716.195 1156.93 716.859 1159.45 716.859H1209.8L1211.8 747.31C1205.16 748.107 1197.8 748.704 1189.7 749.102C1181.61 749.5 1173.36 749.739 1164.94 749.818C1156.5 749.871 1148.3 749.898 1140.34 749.898C1130.92 749.898 1123.2 747.005 1117.18 741.22C1111.13 735.462 1108.1 727.938 1108.1 718.65V642.223C1108.1 632.935 1111.13 625.411 1117.18 619.653C1123.2 613.868 1130.92 610.975 1140.34 610.975ZM1111.68 693.174V664.514H1202.64V693.174H1111.68Z" fill="white"/>
</g>
</g>
</g>
</g>
<g clip-path="url(#clip9_2004_1436)">
<g clip-path="url(#clip10_2004_1436)">
<path d="M749.091 203.717C618.145 203.717 478.966 239.876 478.966 306.889V485.474C478.966 503.329 488.949 519.829 508.615 534.459L513.131 537.862L645.989 516.29V581.855L672.527 584.67C697.313 587.344 723.051 588.646 749.091 588.646C880.037 588.646 1019.22 552.492 1019.22 485.463V306.889C1019.22 239.876 880.037 203.717 749.091 203.717ZM916.968 454.377C916.731 454.437 916.498 454.48 916.272 454.545C903.705 458.413 888.027 455.247 872.29 458.37C866.147 459.591 860.437 465.625 854.542 471.957C840.41 474.086 825.207 475.815 809.037 477.079C801.355 471.525 793.5 466.058 786.039 466.468C779.664 466.819 773.246 472.795 766.687 479.169C760.798 479.294 754.845 479.386 748.74 479.386C733.661 479.386 691.063 477.705 673.002 476.679V406.16C697.654 408.759 723.24 410.115 749.086 410.115C796.352 410.115 844.661 405.344 887.157 396.176C930.934 386.711 968.46 372.508 992.193 353.831V410.487C991.296 411.166 990.331 411.749 989.313 412.227C989.313 413.842 975.44 415.809 967.314 421.671C957.93 428.451 950.88 432.53 936.18 438.445C930.194 440.866 918.595 452.492 916.968 454.377ZM659.539 387.948L645.989 403.302V419.256C644.877 419.736 643.828 420.315 642.829 420.979L530.046 439.294V356.533L713.375 326.765L659.539 387.948ZM614.234 442.038C613.909 442.103 613.623 442.206 613.288 442.26C612.721 442.357 612.218 442.384 611.673 442.454L614.234 442.038ZM505.984 306.889C505.984 275.43 598.48 231.529 749.091 231.529C899.734 231.529 992.198 275.425 992.204 306.889C992.204 338.396 899.74 382.27 749.096 382.27C733.343 382.27 717.692 381.751 702.338 380.779L784.823 287.024L520.133 329.968C512.937 323.842 505.984 315.673 505.984 306.889ZM530.041 506.911V467.473C547.356 469.612 549.339 461.492 569.447 458.224C591.186 454.696 589.852 446.468 611.592 442.94C629.744 439.99 633.991 447.511 645.989 443.686V488.116L530.041 506.911ZM749.091 560.828C733.337 560.828 688.388 558.938 673.007 557.938V493.724C680.76 496.403 696.13 503.384 702.359 503.621C718.14 504.215 734.418 509.056 742.667 509.056C756.811 509.056 770.847 497.333 784.11 496.657C786.892 496.517 789.594 495.68 792.235 494.437C889.016 489.207 960.875 466.884 992.204 440.963V485.469C992.198 516.922 899.734 560.828 749.091 560.828Z" fill="black"/>
</g>
</g>
</g>
</g>
</g>
<path d="M392.26 182.981C435.676 130.398 490.178 88.0598 551.865 58.9963C613.552 29.9327 680.9 14.8618 749.091 14.8618C817.282 14.8618 884.63 29.9327 946.317 58.9963C1008 88.0598 1062.51 130.398 1105.92 182.981H1098C1055.31 131.932 1001.94 90.8721 941.657 62.6979C881.371 34.5236 815.636 19.9214 749.091 19.9214C682.546 19.9214 616.811 34.5236 556.525 62.6979C496.238 90.8721 442.869 131.932 400.181 182.981H392.26ZM392.26 772.226C435.676 824.809 490.178 867.147 551.865 896.211C613.552 925.274 680.9 940.345 749.091 940.345C817.282 940.345 884.63 925.274 946.317 896.211C1008 867.147 1062.51 824.809 1105.92 772.226H1098C1055.31 823.275 1001.94 864.335 941.657 892.509C881.371 920.684 815.636 935.286 749.091 935.286C682.546 935.286 616.811 920.684 556.525 892.509C496.238 864.335 442.869 823.275 400.181 772.226H392.26Z" fill="black"/>
</g>
</mask>
<g mask="url(#mask0_2004_1436)">
<path d="M1497.87 9.61816H0.314209V945.589H1497.87V9.61816Z" fill="url(#paint0_linear_2004_1436)"/>
</g>
<mask id="mask1_2004_1436" style="mask-type:luminance" maskUnits="userSpaceOnUse" x="0" y="9" width="1498" height="937">
<g clip-path="url(#clip11_2004_1436)">
<g clip-path="url(#clip12_2004_1436)">
<g clip-path="url(#clip13_2004_1436)">
<g clip-path="url(#clip14_2004_1436)">
<g clip-path="url(#clip15_2004_1436)">
<g clip-path="url(#clip16_2004_1436)">
<path d="M749.091 203.717C618.145 203.717 478.966 239.876 478.966 306.889V485.474C478.966 503.329 488.949 519.829 508.615 534.459L513.131 537.862L645.989 516.29V581.855L672.527 584.67C697.313 587.344 723.051 588.646 749.091 588.646C880.037 588.646 1019.22 552.492 1019.22 485.463V306.889C1019.22 239.876 880.037 203.717 749.091 203.717ZM916.968 454.377C916.731 454.437 916.498 454.48 916.272 454.545C903.705 458.413 888.027 455.247 872.29 458.37C866.147 459.591 860.437 465.625 854.542 471.957C840.41 474.086 825.207 475.815 809.037 477.079C801.355 471.525 793.5 466.058 786.039 466.468C779.664 466.819 773.246 472.795 766.687 479.169C760.798 479.294 754.845 479.386 748.74 479.386C733.661 479.386 691.063 477.705 673.002 476.679V406.16C697.654 408.759 723.24 410.115 749.086 410.115C796.352 410.115 844.661 405.344 887.157 396.176C930.934 386.711 968.46 372.508 992.193 353.831V410.487C991.296 411.166 990.331 411.749 989.313 412.227C989.313 413.842 975.44 415.809 967.314 421.671C957.93 428.451 950.88 432.53 936.18 438.445C930.194 440.866 918.595 452.492 916.968 454.377ZM659.539 387.948L645.989 403.302V419.256C644.877 419.736 643.828 420.315 642.829 420.979L530.046 439.294V356.533L713.375 326.765L659.539 387.948ZM614.234 442.038C613.909 442.103 613.623 442.206 613.288 442.26C612.721 442.357 612.218 442.384 611.673 442.454L614.234 442.038ZM505.984 306.889C505.984 275.43 598.48 231.529 749.091 231.529C899.734 231.529 992.198 275.425 992.204 306.889C992.204 338.396 899.74 382.27 749.096 382.27C733.343 382.27 717.692 381.751 702.338 380.779L784.823 287.024L520.133 329.968C512.937 323.842 505.984 315.673 505.984 306.889ZM530.041 506.911V467.473C547.356 469.612 549.339 461.492 569.447 458.224C591.186 454.696 589.852 446.468 611.592 442.94C629.744 439.99 633.991 447.511 645.989 443.686V488.116L530.041 506.911ZM749.091 560.828C733.337 560.828 688.388 558.938 673.007 557.938V493.724C680.76 496.403 696.13 503.384 702.359 503.621C718.14 504.215 734.418 509.056 742.667 509.056C756.811 509.056 770.847 497.333 784.11 496.657C786.892 496.517 789.594 495.68 792.235 494.437C889.016 489.207 960.875 466.884 992.204 440.963V485.469C992.198 516.922 899.734 560.828 749.091 560.828Z" fill="white"/>
</g>
</g>
</g>
</g>
</g>
<path d="M392.26 182.981C435.676 130.398 490.178 88.0598 551.865 58.9963C613.552 29.9327 680.9 14.8618 749.091 14.8618C817.282 14.8618 884.63 29.9327 946.317 58.9963C1008 88.0598 1062.51 130.398 1105.92 182.981H1098C1055.31 131.932 1001.94 90.8721 941.657 62.6979C881.371 34.5236 815.636 19.9214 749.091 19.9214C682.546 19.9214 616.811 34.5236 556.525 62.6979C496.238 90.8721 442.869 131.932 400.181 182.981H392.26ZM392.26 772.226C435.676 824.809 490.178 867.147 551.865 896.211C613.552 925.274 680.9 940.345 749.091 940.345C817.282 940.345 884.63 925.274 946.317 896.211C1008 867.147 1062.51 824.809 1105.92 772.226H1098C1055.31 823.275 1001.94 864.335 941.657 892.509C881.371 920.684 815.636 935.286 749.091 935.286C682.546 935.286 616.811 920.684 556.525 892.509C496.238 864.335 442.869 823.275 400.181 772.226H392.26Z" fill="black"/>
</g>
</mask>
<g mask="url(#mask1_2004_1436)">
<path d="M1497.87 9.61816H0.314209V945.589H1497.87V9.61816Z" fill="url(#paint1_linear_2004_1436)"/>
</g>
</g>
<g clip-path="url(#clip17_2004_1436)">
<path d="M393.169 174.877C436.585 122.294 491.087 79.9561 552.774 50.8925C614.461 21.8289 681.809 6.75806 750 6.75806C818.191 6.75806 885.539 21.8289 947.226 50.8925C1008.91 79.9561 1063.41 122.294 1106.83 174.877H1098.91C1056.22 123.828 1002.85 82.7683 942.566 54.5941C882.28 26.4198 816.545 11.8176 750 11.8176C683.455 11.8176 617.72 26.4198 557.434 54.5941C497.147 82.7683 443.778 123.828 401.09 174.877H393.169ZM393.169 764.122C436.585 816.706 491.087 859.043 552.774 888.107C614.461 917.171 681.809 932.241 750 932.241C818.191 932.241 885.539 917.171 947.226 888.107C1008.91 859.043 1063.41 816.706 1106.83 764.122H1098.91C1056.22 815.171 1002.85 856.231 942.566 884.405C882.28 912.58 816.545 927.182 750 927.182C683.455 927.182 617.72 912.58 557.434 884.405C497.147 856.231 443.778 815.171 401.09 764.122H393.169Z" fill="white"/>
<mask id="mask2_2004_1436" style="mask-type:luminance" maskUnits="userSpaceOnUse" x="1" y="1" width="1498" height="937">
<g clip-path="url(#clip18_2004_1436)">
<g clip-path="url(#clip19_2004_1436)">
<g clip-path="url(#clip20_2004_1436)">
<g clip-path="url(#clip21_2004_1436)">
<g clip-path="url(#clip22_2004_1436)">
<g clip-path="url(#clip23_2004_1436)">
<g clip-path="url(#clip24_2004_1436)">
<g clip-path="url(#clip25_2004_1436)">
<path d="M345.611 601.677C359.146 601.677 370.158 602.938 378.65 605.459C387.142 607.98 393.418 612.252 397.479 618.276C401.512 624.327 403.529 632.726 403.529 643.473C403.529 648.913 402.706 653.982 401.061 658.679C399.389 663.403 396.537 667.291 392.503 670.342C388.443 673.394 382.83 675.318 375.665 676.114V677.308C378.186 677.574 380.972 678.33 384.024 679.577C387.076 680.851 389.929 682.974 392.582 685.946C395.236 688.945 397.094 693.231 398.155 698.804L408.903 740.998H363.723L354.767 700.197C353.971 696.349 352.75 693.828 351.105 692.634C349.433 691.439 346.739 690.842 343.024 690.842C333.073 690.71 324.952 690.643 318.663 690.643C312.347 690.643 307 690.577 302.621 690.444C298.242 690.312 293.864 690.113 289.485 689.847L290.082 660.391H344.616C348.73 660.391 351.914 659.993 354.17 659.197C356.425 658.401 357.991 656.968 358.867 654.898C359.716 652.854 360.141 649.975 360.141 646.26C360.141 642.412 359.716 639.493 358.867 637.502C357.991 635.512 356.425 634.119 354.17 633.323C351.914 632.527 348.73 632.129 344.616 632.129C330.817 632.129 319.207 632.195 309.786 632.328C300.365 632.46 293.93 632.726 290.48 633.124L287.296 603.667C293.399 603.004 299.145 602.54 304.532 602.274C309.892 602.009 315.797 601.836 322.245 601.757C328.667 601.704 336.456 601.677 345.611 601.677ZM287.296 603.667H329.689V740.998H287.296V603.667ZM453.088 602.871C461.049 602.871 469.235 602.898 477.648 602.951C486.087 603.031 494.353 603.243 502.447 603.588C510.541 603.906 517.905 604.53 524.539 605.459L522.549 635.91H472.194C469.673 635.91 467.683 636.574 466.223 637.901C464.764 639.227 464.034 640.952 464.034 643.075V701.59C464.034 703.713 464.764 705.438 466.223 706.765C467.683 708.092 469.673 708.755 472.194 708.755H522.549L524.539 739.207C517.905 740.003 510.541 740.6 502.447 740.998C494.353 741.396 486.087 741.635 477.648 741.714C469.235 741.767 461.049 741.794 453.088 741.794C443.667 741.794 435.931 738.901 429.881 733.116C423.857 727.358 420.845 719.834 420.845 710.546V634.119C420.845 624.831 423.857 617.308 429.881 611.549C435.931 605.764 443.667 602.871 453.088 602.871ZM424.427 685.071V656.41H515.384V685.071H424.427ZM599.175 601.677C610.984 601.677 620.962 602.765 629.109 604.941C637.283 607.144 643.891 610.859 648.933 616.087C653.975 621.341 657.624 628.546 659.879 637.701C662.135 646.857 663.263 658.401 663.263 672.333C663.263 686.265 662.135 697.808 659.879 706.964C657.624 716.119 653.975 723.311 648.933 728.539C643.891 733.793 637.283 737.508 629.109 739.684C620.962 741.887 610.984 742.988 599.175 742.988C587.764 742.988 577.282 742.789 567.729 742.391C558.175 741.993 549.086 741.529 540.462 740.998L557.976 710.347C562.62 710.878 568.485 711.236 575.57 711.422C582.682 711.634 590.551 711.741 599.175 711.741C604.085 711.741 607.866 710.679 610.52 708.556C613.174 706.433 615.031 702.519 616.093 696.813C617.154 691.108 617.685 682.948 617.685 672.333C617.685 661.718 617.154 653.558 616.093 647.852C615.031 642.146 613.174 638.232 610.52 636.109C607.866 633.986 604.085 632.925 599.175 632.925C591.081 632.925 583.943 632.925 577.76 632.925C571.603 632.925 565.606 632.858 559.767 632.726L540.462 603.667C549.219 603.137 558.268 602.672 567.609 602.274C576.977 601.876 587.499 601.677 599.175 601.677ZM540.462 603.667H583.651V740.998H540.462V603.667ZM780.054 601.279C787.219 601.279 793.322 601.478 798.364 601.876C803.406 602.274 808.024 602.845 812.217 603.588C816.383 604.304 820.722 605.326 825.233 606.653L822.049 638.1C817.405 637.967 813.092 637.901 809.112 637.901C805.131 637.901 800.885 637.861 796.374 637.781C791.863 637.728 786.422 637.701 780.054 637.701C775.542 637.701 772.066 638.657 769.624 640.568C767.156 642.505 765.458 645.955 764.529 650.917C763.6 655.906 763.136 663.045 763.136 672.333C763.136 681.621 763.6 688.746 764.529 693.708C765.458 698.697 767.156 702.147 769.624 704.058C772.066 705.995 775.542 706.964 780.054 706.964C790.005 706.964 798.338 706.858 805.052 706.645C811.739 706.46 818.4 706.035 825.034 705.372L828.219 736.818C821.319 739.207 814.26 740.905 807.042 741.913C799.797 742.895 790.801 743.386 780.054 743.386C764.927 743.386 752.786 741.091 743.631 736.5C734.476 731.935 727.881 724.478 723.848 714.129C719.787 703.779 717.757 689.847 717.757 672.333C717.757 654.818 719.787 640.886 723.848 630.536C727.881 620.187 734.476 612.717 743.631 608.126C752.786 603.561 764.927 601.279 780.054 601.279ZM880.165 603.667H919.374C922.824 603.667 925.876 604.663 928.53 606.653C931.183 608.643 932.975 611.363 933.903 614.813L969.53 740.998H925.544L904.845 651.634C904.314 649.113 903.85 646.485 903.452 643.752C903.054 641.045 902.722 638.431 902.457 635.91H897.083C896.818 638.431 896.486 641.045 896.088 643.752C895.69 646.485 895.225 649.113 894.695 651.634L873.996 740.998H830.01L865.636 614.813C866.565 611.363 868.356 608.643 871.01 606.653C873.664 604.663 876.716 603.667 880.165 603.667ZM863.248 681.09H936.292V711.342H863.248V681.09ZM1055.71 603.667H1102.08L1070.44 657.405C1068.71 660.457 1066.72 663.045 1064.47 665.168C1062.21 667.291 1060.15 668.75 1058.3 669.546V670.342C1060.15 671.138 1062.5 672.824 1065.34 675.398C1068.21 677.998 1070.44 680.825 1072.03 683.876L1104.07 740.998H1056.11L1019.69 669.148L1055.71 603.667ZM978.287 603.667H1021.48V638.299C1021.48 643.341 1020.97 648.542 1019.96 653.903C1018.98 659.29 1017.43 664.305 1015.31 668.949C1016.9 673.195 1018.32 677.799 1019.57 682.762C1020.84 687.751 1021.48 692.236 1021.48 696.216V740.998H978.287V603.667ZM1009.14 655.813H1032.22V683.677H1009.14V655.813ZM1141.25 602.871C1149.21 602.871 1157.41 602.898 1165.85 602.951C1174.27 603.031 1182.52 603.243 1190.61 603.588C1198.71 603.906 1206.07 604.53 1212.7 605.459L1210.71 635.91H1160.36C1157.84 635.91 1155.85 636.574 1154.39 637.901C1152.93 639.227 1152.2 640.952 1152.2 643.075V701.59C1152.2 703.713 1152.93 705.438 1154.39 706.765C1155.85 708.092 1157.84 708.755 1160.36 708.755H1210.71L1212.7 739.207C1206.07 740.003 1198.71 740.6 1190.61 740.998C1182.52 741.396 1174.27 741.635 1165.85 741.714C1157.41 741.767 1149.21 741.794 1141.25 741.794C1131.83 741.794 1124.11 738.901 1118.09 733.116C1112.04 727.358 1109.01 719.834 1109.01 710.546V634.119C1109.01 624.831 1112.04 617.308 1118.09 611.549C1124.11 605.764 1131.83 602.871 1141.25 602.871ZM1112.59 685.071V656.41H1203.55V685.071H1112.59Z" fill="white"/>
</g>
</g>
</g>
</g>
<g clip-path="url(#clip26_2004_1436)">
<g clip-path="url(#clip27_2004_1436)">
<path d="M750 195.614C619.054 195.614 479.875 231.773 479.875 298.785V477.37C479.875 495.226 489.858 511.725 509.524 526.355L514.04 529.759L646.899 508.186V573.751L673.436 576.566C698.222 579.24 723.96 580.542 750 580.542C880.946 580.542 1020.13 544.389 1020.13 477.36V298.785C1020.13 231.773 880.946 195.614 750 195.614ZM917.877 446.274C917.64 446.333 917.407 446.376 917.18 446.441C904.614 450.309 888.936 447.143 873.199 450.266C867.056 451.487 861.346 457.522 855.451 463.853C841.318 465.982 826.116 467.711 809.946 468.975C802.264 463.421 794.409 457.954 786.948 458.364C780.573 458.716 774.155 464.691 767.596 471.066C761.707 471.19 755.754 471.282 749.649 471.282C734.57 471.282 691.972 469.602 673.911 468.575V398.056C698.563 400.655 724.149 402.011 749.995 402.011C797.261 402.011 845.57 397.24 888.066 388.072C931.843 378.607 969.369 364.404 993.102 345.728V402.384C992.205 403.062 991.24 403.645 990.222 404.123C990.222 405.739 976.349 407.705 968.223 413.567C958.839 420.347 951.789 424.426 937.089 430.342C931.103 432.762 919.504 444.388 917.877 446.274ZM660.448 379.844L646.899 395.198V411.152C645.786 411.633 644.738 412.211 643.738 412.875L530.955 431.19V348.429L714.284 318.661L660.448 379.844ZM615.143 433.934C614.818 433.999 614.532 434.102 614.197 434.156C613.63 434.253 613.127 434.28 612.582 434.35L615.143 433.934ZM506.893 298.785C506.893 267.326 599.389 223.426 750 223.426C900.643 223.426 993.107 267.321 993.113 298.785C993.113 330.293 900.649 374.166 750.005 374.166C734.252 374.166 718.601 373.648 703.247 372.675L785.732 278.92L521.042 321.865C513.846 315.738 506.893 307.57 506.893 298.785ZM530.95 498.808V459.369C548.265 461.509 550.248 453.389 570.356 450.12C592.095 446.592 590.761 438.364 612.501 434.837C630.653 431.887 634.9 439.407 646.899 435.582V480.012L530.95 498.808ZM750 552.725C734.246 552.725 689.297 550.834 673.916 549.834V485.62C681.669 488.3 697.039 495.28 703.268 495.517C719.049 496.112 735.327 500.952 743.576 500.952C757.72 500.952 771.756 489.229 785.019 488.554C787.801 488.413 790.503 487.576 793.144 486.333C889.925 481.104 961.784 458.78 993.113 432.859V477.365C993.107 508.818 900.643 552.725 750 552.725Z" fill="black"/>
</g>
</g>
</g>
</g>
</g>
<path d="M393.169 174.877C436.585 122.294 491.087 79.9561 552.774 50.8925C614.461 21.8289 681.809 6.75806 750 6.75806C818.191 6.75806 885.539 21.8289 947.226 50.8925C1008.91 79.9561 1063.41 122.294 1106.83 174.877H1098.91C1056.22 123.828 1002.85 82.7683 942.566 54.5941C882.28 26.4198 816.545 11.8176 750 11.8176C683.455 11.8176 617.72 26.4198 557.434 54.5941C497.147 82.7683 443.778 123.828 401.09 174.877H393.169ZM393.169 764.122C436.585 816.706 491.087 859.043 552.774 888.107C614.461 917.171 681.809 932.241 750 932.241C818.191 932.241 885.539 917.171 947.226 888.107C1008.91 859.043 1063.41 816.706 1106.83 764.122H1098.91C1056.22 815.171 1002.85 856.231 942.566 884.405C882.28 912.58 816.545 927.182 750 927.182C683.455 927.182 617.72 912.58 557.434 884.405C497.147 856.231 443.778 815.171 401.09 764.122H393.169Z" fill="black"/>
</g>
</mask>
<g mask="url(#mask2_2004_1436)">
<path d="M1498.78 1.5144H1.22327V937.485H1498.78V1.5144Z" fill="white"/>
</g>
<mask id="mask3_2004_1436" style="mask-type:luminance" maskUnits="userSpaceOnUse" x="1" y="1" width="1498" height="937">
<g clip-path="url(#clip28_2004_1436)">
<g clip-path="url(#clip29_2004_1436)">
<g clip-path="url(#clip30_2004_1436)">
<g clip-path="url(#clip31_2004_1436)">
<g clip-path="url(#clip32_2004_1436)">
<g clip-path="url(#clip33_2004_1436)">
<path d="M750 195.614C619.054 195.614 479.875 231.773 479.875 298.785V477.37C479.875 495.226 489.858 511.725 509.524 526.355L514.04 529.759L646.899 508.186V573.751L673.436 576.566C698.222 579.24 723.96 580.542 750 580.542C880.946 580.542 1020.13 544.389 1020.13 477.36V298.785C1020.13 231.773 880.946 195.614 750 195.614ZM917.877 446.274C917.64 446.333 917.407 446.376 917.18 446.441C904.614 450.309 888.936 447.143 873.199 450.266C867.056 451.487 861.346 457.522 855.451 463.853C841.318 465.982 826.116 467.711 809.946 468.975C802.264 463.421 794.409 457.954 786.948 458.364C780.573 458.716 774.155 464.691 767.596 471.066C761.707 471.19 755.754 471.282 749.649 471.282C734.57 471.282 691.972 469.602 673.911 468.575V398.056C698.563 400.655 724.149 402.011 749.995 402.011C797.261 402.011 845.57 397.24 888.066 388.072C931.843 378.607 969.369 364.404 993.102 345.728V402.384C992.205 403.062 991.24 403.645 990.222 404.123C990.222 405.739 976.349 407.705 968.223 413.567C958.839 420.347 951.789 424.426 937.089 430.342C931.103 432.762 919.504 444.388 917.877 446.274ZM660.448 379.844L646.899 395.198V411.152C645.786 411.633 644.738 412.211 643.738 412.875L530.955 431.19V348.429L714.284 318.661L660.448 379.844ZM615.143 433.934C614.818 433.999 614.532 434.102 614.197 434.156C613.63 434.253 613.127 434.28 612.582 434.35L615.143 433.934ZM506.893 298.785C506.893 267.326 599.389 223.426 750 223.426C900.643 223.426 993.107 267.321 993.113 298.785C993.113 330.293 900.649 374.166 750.005 374.166C734.252 374.166 718.601 373.648 703.247 372.675L785.732 278.92L521.042 321.865C513.846 315.738 506.893 307.57 506.893 298.785ZM530.95 498.808V459.369C548.265 461.509 550.248 453.389 570.356 450.12C592.095 446.592 590.761 438.364 612.501 434.837C630.653 431.887 634.9 439.407 646.899 435.582V480.012L530.95 498.808ZM750 552.725C734.246 552.725 689.297 550.834 673.916 549.834V485.62C681.669 488.3 697.039 495.28 703.268 495.517C719.049 496.112 735.327 500.952 743.576 500.952C757.72 500.952 771.756 489.229 785.019 488.554C787.801 488.413 790.503 487.576 793.144 486.333C889.925 481.104 961.784 458.78 993.113 432.859V477.365C993.107 508.818 900.643 552.725 750 552.725Z" fill="white"/>
</g>
</g>
</g>
</g>
</g>
<path d="M393.169 174.877C436.585 122.294 491.087 79.9561 552.774 50.8925C614.461 21.8289 681.809 6.75806 750 6.75806C818.191 6.75806 885.539 21.8289 947.226 50.8925C1008.91 79.9561 1063.41 122.294 1106.83 174.877H1098.91C1056.22 123.828 1002.85 82.7683 942.566 54.5941C882.28 26.4198 816.545 11.8176 750 11.8176C683.455 11.8176 617.72 26.4198 557.434 54.5941C497.147 82.7683 443.778 123.828 401.09 174.877H393.169ZM393.169 764.122C436.585 816.706 491.087 859.043 552.774 888.107C614.461 917.171 681.809 932.241 750 932.241C818.191 932.241 885.539 917.171 947.226 888.107C1008.91 859.043 1063.41 816.706 1106.83 764.122H1098.91C1056.22 815.171 1002.85 856.231 942.566 884.405C882.28 912.58 816.545 927.182 750 927.182C683.455 927.182 617.72 912.58 557.434 884.405C497.147 856.231 443.778 815.171 401.09 764.122H393.169Z" fill="black"/>
</g>
</mask>
<g mask="url(#mask3_2004_1436)">
<path d="M1498.78 1.5144H1.22327V937.485H1498.78V1.5144Z" fill="white"/>
</g>
</g>
<defs>
<linearGradient id="paint0_linear_2004_1436" x1="0.314209" y1="477.604" x2="1497.87" y2="477.604" gradientUnits="userSpaceOnUse">
<stop stop-color="#F00B51"/>
<stop offset="1" stop-color="#730062"/>
</linearGradient>
<linearGradient id="paint1_linear_2004_1436" x1="0.314209" y1="477.604" x2="1497.87" y2="477.604" gradientUnits="userSpaceOnUse">
<stop stop-color="#F00B51"/>
<stop offset="1" stop-color="#730062"/>
</linearGradient>
<clipPath id="clip0_2004_1436">
<rect width="1497.55" height="935.971" fill="white" transform="translate(0.314209 9.61816)"/>
</clipPath>
<clipPath id="clip1_2004_1436">
<rect width="1497.55" height="935.971" fill="white" transform="translate(0.314209 9.61816)"/>
</clipPath>
<clipPath id="clip2_2004_1436">
<rect width="925.488" height="547.773" fill="white" transform="translate(286.347 203.717)"/>
</clipPath>
<clipPath id="clip3_2004_1436">
<rect width="925.488" height="547.773" fill="white" transform="translate(286.347 203.717)"/>
</clipPath>
<clipPath id="clip4_2004_1436">
<rect width="925.488" height="547.773" fill="white" transform="translate(286.347 203.717)"/>
</clipPath>
<clipPath id="clip5_2004_1436">
<rect width="925.488" height="142.107" fill="white" transform="translate(286.347 609.383)"/>
</clipPath>
<clipPath id="clip6_2004_1436">
<rect width="925.488" height="142.107" fill="white" transform="translate(286.347 609.383)"/>
</clipPath>
<clipPath id="clip7_2004_1436">
<rect width="925.488" height="142.107" fill="white" transform="translate(286.347 609.383)"/>
</clipPath>
<clipPath id="clip8_2004_1436">
<rect width="925.488" height="142.107" fill="white" transform="translate(286.347 609.383)"/>
</clipPath>
<clipPath id="clip9_2004_1436">
<rect width="540.251" height="384.929" fill="white" transform="translate(478.966 203.717)"/>
</clipPath>
<clipPath id="clip10_2004_1436">
<rect width="540.251" height="384.929" fill="white" transform="translate(478.966 203.717)"/>
</clipPath>
<clipPath id="clip11_2004_1436">
<rect width="1497.55" height="935.971" fill="white" transform="translate(0.314209 9.61816)"/>
</clipPath>
<clipPath id="clip12_2004_1436">
<rect width="925.488" height="547.773" fill="white" transform="translate(286.347 203.717)"/>
</clipPath>
<clipPath id="clip13_2004_1436">
<rect width="925.488" height="547.773" fill="white" transform="translate(286.347 203.717)"/>
</clipPath>
<clipPath id="clip14_2004_1436">
<rect width="925.488" height="547.773" fill="white" transform="translate(286.347 203.717)"/>
</clipPath>
<clipPath id="clip15_2004_1436">
<rect width="540.251" height="384.929" fill="white" transform="translate(478.966 203.717)"/>
</clipPath>
<clipPath id="clip16_2004_1436">
<rect width="540.251" height="384.929" fill="white" transform="translate(478.966 203.717)"/>
</clipPath>
<clipPath id="clip17_2004_1436">
<rect width="1497.55" height="935.971" fill="white" transform="translate(1.22327 1.5144)"/>
</clipPath>
<clipPath id="clip18_2004_1436">
<rect width="1497.55" height="935.971" fill="white" transform="translate(1.22327 1.5144)"/>
</clipPath>
<clipPath id="clip19_2004_1436">
<rect width="925.488" height="547.773" fill="white" transform="translate(287.256 195.614)"/>
</clipPath>
<clipPath id="clip20_2004_1436">
<rect width="925.488" height="547.773" fill="white" transform="translate(287.256 195.614)"/>
</clipPath>
<clipPath id="clip21_2004_1436">
<rect width="925.488" height="547.773" fill="white" transform="translate(287.256 195.614)"/>
</clipPath>
<clipPath id="clip22_2004_1436">
<rect width="925.488" height="142.107" fill="white" transform="translate(287.256 601.279)"/>
</clipPath>
<clipPath id="clip23_2004_1436">
<rect width="925.488" height="142.107" fill="white" transform="translate(287.256 601.279)"/>
</clipPath>
<clipPath id="clip24_2004_1436">
<rect width="925.488" height="142.107" fill="white" transform="translate(287.256 601.279)"/>
</clipPath>
<clipPath id="clip25_2004_1436">
<rect width="925.488" height="142.107" fill="white" transform="translate(287.256 601.279)"/>
</clipPath>
<clipPath id="clip26_2004_1436">
<rect width="540.251" height="384.929" fill="white" transform="translate(479.875 195.614)"/>
</clipPath>
<clipPath id="clip27_2004_1436">
<rect width="540.251" height="384.929" fill="white" transform="translate(479.875 195.614)"/>
</clipPath>
<clipPath id="clip28_2004_1436">
<rect width="1497.55" height="935.971" fill="white" transform="translate(1.22327 1.5144)"/>
</clipPath>
<clipPath id="clip29_2004_1436">
<rect width="925.488" height="547.773" fill="white" transform="translate(287.256 195.614)"/>
</clipPath>
<clipPath id="clip30_2004_1436">
<rect width="925.488" height="547.773" fill="white" transform="translate(287.256 195.614)"/>
</clipPath>
<clipPath id="clip31_2004_1436">
<rect width="925.488" height="547.773" fill="white" transform="translate(287.256 195.614)"/>
</clipPath>
<clipPath id="clip32_2004_1436">
<rect width="540.251" height="384.929" fill="white" transform="translate(479.875 195.614)"/>
</clipPath>
<clipPath id="clip33_2004_1436">
<rect width="540.251" height="384.929" fill="white" transform="translate(479.875 195.614)"/>
</clipPath>
</defs>
</svg>
