<svg width="370" height="113" viewBox="0 0 370 113" fill="none" xmlns="http://www.w3.org/2000/svg">
<mask id="mask0_2004_312" style="mask-type:luminance" maskUnits="userSpaceOnUse" x="0" y="0" width="370" height="113">
<path d="M0.263672 112.289H369.715V0.907532H0.263672V112.289Z" fill="white"/>
</mask>
<g mask="url(#mask0_2004_312)">
<path fill-rule="evenodd" clip-rule="evenodd" d="M363.914 40.6283H362.919L362.896 38.816H363.914C364.693 38.816 364.971 39.1553 364.971 39.6836C364.971 39.8185 364.944 39.9496 364.886 40.073C364.832 40.1926 364.751 40.3005 364.651 40.3892C364.551 40.4779 364.435 40.5473 364.308 40.5859C364.18 40.6283 364.045 40.6437 363.914 40.6283ZM366.004 39.5949C366.004 38.7388 365.499 37.9329 364.003 37.9329L361.952 37.9214V43.7016H362.869V41.4573H364.042L365.171 43.7016H366.32L364.971 41.1836C365.279 41.0486 365.542 40.825 365.727 40.5435C365.908 40.262 366.004 39.9304 366.004 39.5949ZM359.919 43.5897C359.38 42.8031 359.09 41.8699 359.079 40.9175C359.052 40.2735 359.156 39.6296 359.391 39.028C359.623 38.4265 359.977 37.8789 360.428 37.4201C360.883 36.9612 361.427 36.6026 362.029 36.3635C362.626 36.1244 363.27 36.0126 363.914 36.0319C364.867 36.0319 365.8 36.3172 366.594 36.8455C367.389 37.3738 368.009 38.1257 368.376 39.0049C368.742 39.8879 368.842 40.8558 368.661 41.7928C368.476 42.7298 368.021 43.5897 367.35 44.2684C366.679 44.9471 365.823 45.4098 364.886 45.6026C363.953 45.7954 362.981 45.7067 362.098 45.3481C361.215 44.9895 360.455 44.3764 359.919 43.5897ZM368.731 44.1489C369.371 43.1926 369.714 42.0666 369.718 40.9175C369.741 40.1463 369.61 39.3828 369.328 38.6656C369.043 37.9483 368.619 37.2967 368.075 36.753C367.531 36.2054 366.88 35.7774 366.166 35.4921C365.449 35.2028 364.686 35.0679 363.914 35.0872C362.765 35.0872 361.639 35.4265 360.679 36.0627C359.723 36.699 358.975 37.6052 358.535 38.6694C358.092 39.7298 357.972 40.8982 358.196 42.028C358.416 43.1579 358.967 44.1951 359.781 45.0088C360.59 45.8262 361.628 46.3815 362.754 46.609C363.883 46.8327 365.052 46.7208 366.116 46.2851C367.18 45.8455 368.09 45.1013 368.731 44.1489ZM344.326 51.8455L332.842 76.3584H327.883L316.551 52.0615V77.5807H308.129V35.6193H316.527L330.629 65.8969L344.26 35.6193H352.736V77.5653H344.326V51.8455ZM272.854 62.4342L278.58 45.6373L284.437 62.4342H272.854ZM267.691 77.5807L270.463 69.4329L286.84 69.4214L289.686 77.5653H299.202L283.026 35.6193H274.215L258.475 77.5807H267.691ZM231.347 43.1733V52.6244H248.164V60.1784H231.347V70.0267H250.859V77.5807H222.56V35.6193H250.859V43.1733H231.347ZM200.11 77.5923V43.1733H212.839V35.6193H178.57V43.1733H191.299V77.5923H200.11ZM170.939 39.0165L167.164 45.5756C164.156 43.5435 160.62 42.4291 156.991 42.3674C153.101 42.3674 150.695 43.9638 150.695 46.8481C150.695 49.8095 153.756 50.8507 158.553 52.4856C159.421 52.7787 160.346 53.0949 161.322 53.4458C168.147 55.8635 172.061 58.6938 172.061 64.9522C172.061 73.501 165.34 78.298 155.696 78.298C150.525 78.3134 145.435 76.983 140.939 74.4303L143.657 67.154C147.232 69.0435 151.2 70.0653 155.241 70.1386C160.339 70.1386 162.795 68.2645 162.795 65.4805C162.795 62.5306 159.629 61.4895 154.416 59.7812H154.408C153.999 59.6463 153.575 59.5075 153.139 59.3609C146.33 57.0974 141.621 54.1129 141.621 47.1874C141.621 39.3944 147.914 34.9136 156.853 34.9136C161.862 34.771 166.79 36.2054 170.939 39.0165ZM65.4876 36.4136C64.3308 38.1412 63.7139 40.1733 63.7139 42.2517L63.6522 42.2285C63.6483 43.6167 63.9182 44.9895 64.4503 46.2735C64.9825 47.5537 65.7614 48.7183 66.7447 49.6977C67.728 50.6771 68.8963 51.4522 70.1804 51.9805C71.4645 52.5049 72.8372 52.7748 74.2254 52.7633C76.3077 52.7633 78.3398 52.1463 80.0673 50.9933C81.7948 49.8365 83.1444 48.1977 83.9388 46.2735C84.7331 44.3532 84.9413 42.2401 84.5364 40.2003C84.1316 38.1643 83.129 36.2903 81.6599 34.8172C80.1907 33.3481 78.3167 32.3494 76.2768 31.9406C74.237 31.5358 72.1239 31.744 70.2036 32.5383C68.2833 33.3365 66.6406 34.6823 65.4876 36.4136ZM85.8475 34.4702C87.3861 36.7723 88.2036 39.483 88.1997 42.2517C88.1958 45.9612 86.719 49.5126 84.0969 52.1347C81.4748 54.7568 77.9234 56.2337 74.2139 56.2375C71.4452 56.2414 68.7344 55.4239 66.4323 53.8854C64.1264 52.3468 62.3295 50.1604 61.2691 47.6039C60.2087 45.0435 59.9311 42.2285 60.4709 39.51C61.0108 36.7954 62.345 34.3005 64.3038 32.3417C66.2627 30.3828 68.7576 29.0486 71.4722 28.5088C74.1907 27.9689 77.0056 28.2465 79.566 29.307C82.1226 30.3712 84.309 32.1643 85.8475 34.4702ZM35.1753 85.4239L28.3231 82.5897C29.318 84.6566 30.8912 86.3918 32.8539 87.5833C34.8167 88.771 37.0802 89.3648 39.3745 89.2877C41.6689 89.2106 43.8899 88.4702 45.7678 87.1514C47.6457 85.8365 49.1033 84.001 49.9555 81.8686C50.8077 79.7401 51.0236 77.4072 50.5763 75.1591C50.1251 72.9072 49.0301 70.8365 47.4259 69.1977C45.8218 67.5589 43.7704 66.4252 41.53 65.9278C39.2897 65.4342 36.9568 65.6039 34.809 66.4136L41.8732 69.3327C44.0056 70.2195 45.6984 71.9201 46.5776 74.0563C47.4606 76.1926 47.4568 78.591 46.566 80.7273C45.6791 82.8597 43.9786 84.5525 41.8424 85.4355C39.7061 86.3147 37.3077 86.3108 35.1753 85.4239ZM55.7704 0.907219C41.773 0.911079 28.2922 6.18228 18.0043 15.6759C7.72027 25.1656 1.3848 38.1836 0.262695 52.1347L30.1123 64.4856C32.7228 62.6926 35.8192 61.7363 38.9889 61.7401H39.8681L53.1406 42.5062V42.2285C53.1521 38.0756 54.3976 34.019 56.7151 30.5756C59.0365 27.1283 62.3218 24.4483 66.1624 22.8674C70.003 21.2903 74.2254 20.8854 78.2974 21.7028C82.3694 22.5242 86.1059 24.5293 89.0364 27.4715C91.967 30.4136 93.9606 34.1579 94.7665 38.2298C95.5686 42.3057 95.1483 46.5242 93.5557 50.3609C91.9632 54.1977 89.2717 57.4715 85.8167 59.7774C82.3616 62.0833 78.3051 63.3134 74.1522 63.3134H73.674L54.7871 76.8249V77.5653C54.7987 81.483 53.3488 85.262 50.7228 88.1694C48.1007 91.0769 44.4838 92.9008 40.5892 93.2902C36.6907 93.6758 32.7884 92.6 29.6419 90.271C26.4953 87.9381 24.3282 84.5177 23.5647 80.6771L2.22543 71.8622C5.05191 81.8339 10.6007 90.8185 18.2511 97.8057C25.9015 104.793 35.3527 109.509 45.5365 111.421C55.7203 113.334 66.2357 112.366 75.8989 108.63C85.566 104.893 93.9953 98.5345 100.242 90.2671C106.493 81.9998 110.31 72.1553 111.27 61.8404C112.231 51.5216 110.295 41.1411 105.675 31.8635C101.06 22.5859 93.9452 14.7813 85.138 9.32881C76.327 3.87251 66.1701 0.984344 55.809 0.984344L55.7704 0.907219Z" fill="white"/>
</g>
</svg>
